<svg xmlns="http://www.w3.org/2000/svg" width="41.839" height="36.004" viewBox="0 0 41.839 36.004">
  <g id="Group_5162" data-name="Group 5162" transform="translate(-874.218 -699.809)">
    <path id="Path_7605" data-name="Path 7605" d="M29.155,57.6H15.088V26.444a1.092,1.092,0,0,1,1.383,0L29.155,36.81Z" transform="translate(879.319 675.684)" fill="#d9e2ff"/>
    <path id="Path_7603" data-name="Path 7603" d="M40.466,40.655,21.443,25.107a1.677,1.677,0,0,0-2.123,0L14.447,29.09V27.023a.807.807,0,0,0-.808-.807H8.951a.807.807,0,0,0-.808.807v7.22L.3,40.655A.808.808,0,0,0,1.32,41.907l4.073-3.329V58.853a.807.807,0,0,0,.807.808H34.564a.808.808,0,0,0,.808-.808V38.578l4.073,3.329a.808.808,0,0,0,1.022-1.252ZM9.758,27.83h3.073v2.58L9.758,32.922Zm24,30.215H7.007V37.257L19.69,26.891a1.092,1.092,0,0,1,1.383,0L33.756,37.257Z" transform="translate(874.718 675.652)" fill="#8498db" stroke="#8498db" stroke-width="1"/>
  </g>
</svg>
