<svg xmlns="http://www.w3.org/2000/svg" width="46.657" height="35.102" viewBox="0 0 46.657 35.102">
  <g id="Group_4637" data-name="Group 4637" transform="translate(0.253 -63.597)">
    <path id="Path_7661" data-name="Path 7661" d="M38.228,85.414c3.33,3.047,14.372,13.149,18.236,16.63a1.929,1.929,0,0,0,2.792,0c2.859-2.576,9.649-8.777,14.336-13.063V85.333H38.628A1.839,1.839,0,0,0,38.228,85.414Z" transform="translate(-34.784 -19.563)" fill="#fff"/>
    <path id="Path_7662" data-name="Path 7662" d="M329.945,172.489a3.826,3.826,0,0,0,.31-1.512V154.709c-3.194,2.919-7.022,6.415-9.933,9.062C323.132,166.184,326.811,169.563,329.945,172.489Z" transform="translate(-291.447 -82.684)" fill="#fff"/>
    <path id="Path_7663" data-name="Path 7663" d="M106.276,271.2a3.841,3.841,0,0,1-5.367,0c-.459-.414-1.042-.941-1.68-1.52-3.1,2.656-7.362,6.586-10.738,9.75h26.986a3.826,3.826,0,0,0,2.354-.807c-3.216-3-7.03-6.508-9.875-8.943C107.318,270.263,106.735,270.791,106.276,271.2Z" transform="translate(-80.517 -187.294)" fill="#fff"/>
    <path id="Path_7664" data-name="Path 7664" d="M21.441,100.771a1.858,1.858,0,0,0-.108.532v24.446h3.246c3.479-3.279,8.508-7.959,12.111-11.053C31.694,110.152,23.989,103.1,21.441,100.771Z" transform="translate(-19.413 -33.609)" fill="#fff"/>
    <path id="Path_7652" data-name="Path 7652" d="M46.157,106.549v26.92a3.85,3.85,0,0,1-3.846,3.846H3.846A3.85,3.85,0,0,1,0,133.48v0a3.85,3.85,0,0,0,3.846,3.846H42.311a3.85,3.85,0,0,0,3.846-3.846V106.56S46.157,106.553,46.157,106.549Z" transform="translate(-0.003 -38.866)"/>
    <path id="Path_7654" data-name="Path 7654" d="M0,377.833V380.3s0,.007,0,.011v-2.475Z" transform="translate(0 -285.694)"/>
    <path id="Path_7657" data-name="Path 7657" d="M434,63.847a3.85,3.85,0,0,1,3.846,3.836v0A3.85,3.85,0,0,0,434,63.832h-3.5v.015Z" transform="translate(-391.693)"/>
    <g id="Group_4638" data-name="Group 4638" transform="translate(1.921 65.77)">
      <path id="Path_7653" data-name="Path 7653" d="M434.4,85.414a1.831,1.831,0,0,0-.4-.081h-3.5v3.649Z" transform="translate(-393.613 -85.333)" fill="#d9e2ff"/>
      <path id="Path_7655" data-name="Path 7655" d="M42.422,369.686c-1.943,1.822-3.595,3.39-4.565,4.315a1.84,1.84,0,0,0,.434.088H76.755a1.838,1.838,0,0,0,.434-.088c-1.111-1.059-3.114-2.961-5.427-5.122a3.827,3.827,0,0,1-2.354.807Z" transform="translate(-36.367 -343.317)" fill="#d9e2ff"/>
      <path id="Path_7656" data-name="Path 7656" d="M21.333,380.312a1.853,1.853,0,0,0,.1.5c.71-.677,1.814-1.727,3.144-2.98H21.333Z" transform="translate(-21.333 -351.464)" fill="#d9e2ff"/>
      <path id="Path_7658" data-name="Path 7658" d="M427.063,123.412c2.419,2.258,4.513,4.247,5.632,5.315a1.857,1.857,0,0,0,.1-.5V101.3a1.858,1.858,0,0,0-.108-.532c-1.064.974-3.027,2.77-5.316,4.863V121.9A3.826,3.826,0,0,1,427.063,123.412Z" transform="translate(-390.486 -99.377)" fill="#d9e2ff"/>
    </g>
    <path id="Union_3" data-name="Union 3" d="M3.846,34.6A3.85,3.85,0,0,1,0,30.766V3.846A3.85,3.85,0,0,1,3.847,0H42.311a3.85,3.85,0,0,1,3.846,3.836v26.92A3.849,3.849,0,0,1,42.311,34.6Zm-.434-2a1.835,1.835,0,0,0,.435.088H42.311a1.832,1.832,0,0,0,.434-.088c-1.111-1.059-3.114-2.961-5.426-5.122-3.217-3-7.03-6.509-9.876-8.942-.638.578-1.221,1.107-1.68,1.52a3.841,3.841,0,0,1-5.368,0c-.459-.413-1.042-.94-1.679-1.519C15.61,21.2,11.354,25.128,7.977,28.291,6.035,30.113,4.383,31.682,3.413,32.607Zm40.72-1.334a1.822,1.822,0,0,0,.1-.5V3.846a1.894,1.894,0,0,0-.107-.531c-1.065.975-3.027,2.771-5.317,4.862-3.192,2.92-7.022,6.415-9.933,9.063,2.811,2.413,6.49,5.792,9.624,8.718C40.918,28.215,43.013,30.2,44.132,31.273Zm-42.208-.5a1.9,1.9,0,0,0,.1.5c.71-.678,1.814-1.727,3.145-2.982,3.478-3.279,8.508-7.959,12.11-11.052-5-4.544-12.7-11.592-15.249-13.925a1.844,1.844,0,0,0-.107.531V30.771ZM3.447,2C6.776,5.05,17.818,15.152,21.682,18.633a1.929,1.929,0,0,0,2.792,0c2.859-2.577,9.648-8.777,14.335-13.063L42.711,2a1.79,1.79,0,0,0-.4-.082H3.847A1.87,1.87,0,0,0,3.447,2Z" transform="translate(-0.003 63.847)" fill="#8498db" stroke="#8498db" stroke-miterlimit="10" stroke-width="0.5"/>
    <path id="Path_7660" data-name="Path 7660" d="M0,67.694a3.85,3.85,0,0,1,3.846-3.846H38.807v-.015H3.843A3.85,3.85,0,0,0,0,67.678V92.139H0Z"/>
  </g>
</svg>
