<svg xmlns="http://www.w3.org/2000/svg" xmlns:xlink="http://www.w3.org/1999/xlink" width="41.086" height="41.269" viewBox="0 0 41.086 41.269">
  <defs>
    <clipPath id="clip-path">
      <rect width="36.835" height="36.967" fill="none"/>
    </clipPath>
  </defs>
  <g id="Group_5161" data-name="Group 5161" transform="translate(-489.619 -694)">
    <path id="Path_7068" data-name="Path 7068" d="M37.407,60.91c-.009,0-.009.009,0,0-.361.388-.73.74-1.128,1.128A24.309,24.309,0,0,0,34.5,63.887a4.457,4.457,0,0,1-3.476,1.47c-.139,0-.287,0-.425-.009a20.052,20.052,0,0,1-7.211-2.163A41.067,41.067,0,0,1,9.737,52.5,37.532,37.532,0,0,1,3.081,41.413a13.2,13.2,0,0,1-1.035-5.787A4.244,4.244,0,0,1,3.321,32.88l3.153-3.152a2.1,2.1,0,0,1,1.405-.656,1.978,1.978,0,0,1,1.35.647l.028.028c.564.527,1.1,1.072,1.664,1.655.287.3.582.592.878.9l2.524,2.524a1.764,1.764,0,0,1,0,2.866c-.268.268-.527.536-.8.8-.777.8-1.516,1.535-2.321,2.256-.018.018-.037.028-.046.046a1.886,1.886,0,0,0-.481,2.1l.028.083a20.262,20.262,0,0,0,2.986,4.872l.009.009a33.932,33.932,0,0,0,8.21,7.47,12.622,12.622,0,0,0,1.137.619c.333.166.647.324.915.49.037.018.074.046.111.065a2,2,0,0,0,.915.231,1.977,1.977,0,0,0,1.405-.638l3.162-3.162a2.092,2.092,0,0,1,1.4-.693,1.883,1.883,0,0,1,1.331.675l.018.018L37.4,58.016A1.828,1.828,0,0,1,37.407,60.91Z" transform="translate(490.106 667.929)" fill="#fff"/>
    <g id="Repeat_Grid_127" data-name="Repeat Grid 127" transform="translate(489.644 697)" clip-path="url(#clip-path)">
      <g transform="translate(-489.644 -697)">
        <path id="Path_7068-2" data-name="Path 7068" d="M38.144,62.226c-.009,0-.009.01,0,0-.368.4-.746.77-1.152,1.174a25.1,25.1,0,0,0-1.822,1.925c-.953,1.04-1.092.634-2.565.634-.142,0-.909.01-1.051,0-2.8-.183-5.05-1.863-7-2.817C19.209,60.505,11.1,52.777,11.1,52.777s-4.939-7.3-6.365-11.224c-.878-2.4-2.839-3.895-2.7-5.656a4.457,4.457,0,0,1,1.3-2.859l3.219-3.283a2.128,2.128,0,0,1,1.435-.684,2,2,0,0,1,1.378.674l.028.029c.576.549,1.123,1.117,1.7,1.723.293.308.595.616.9.934l2.577,2.628c1,1.02,1.928,2.494.927,3.514-2.672,2.449,11.24,18.791,14.629,15.335a2.121,2.121,0,0,1,1.425-.722,1.911,1.911,0,0,1,1.359.7l.019.019,5.2,5.3A1.927,1.927,0,0,1,38.144,62.226Z" transform="translate(487.614 667.929)" fill="#d9e2ff"/>
      </g>
    </g>
    <g id="Group_3850" data-name="Group 3850" transform="translate(489.619 694)">
      <path id="Path_7068-3" data-name="Path 7068" d="M34.931,52.007a4.308,4.308,0,0,0-3.125-1.433A4.455,4.455,0,0,0,28.645,52l-2.921,2.912c-.24-.129-.481-.25-.712-.37-.333-.166-.647-.324-.915-.49a31.752,31.752,0,0,1-7.609-6.934,18.732,18.732,0,0,1-2.5-3.938c.758-.693,1.461-1.414,2.145-2.108.259-.259.518-.527.777-.786a4.241,4.241,0,0,0,0-6.4l-2.524-2.524c-.287-.287-.582-.582-.86-.878-.555-.573-1.137-1.165-1.738-1.72a4.376,4.376,0,0,0-3.1-1.359A4.529,4.529,0,0,0,5.55,28.765l-.018.018L2.389,31.954a6.764,6.764,0,0,0-2.006,4.3,16.206,16.206,0,0,0,1.183,6.86,39.806,39.806,0,0,0,7.072,11.8A43.506,43.506,0,0,0,23.125,66.253a22.572,22.572,0,0,0,8.136,2.4c.194.009.4.018.582.018a6.966,6.966,0,0,0,5.334-2.293c.009-.018.028-.028.037-.046a21.019,21.019,0,0,1,1.618-1.673c.4-.379.8-.777,1.2-1.193a4.612,4.612,0,0,0,1.4-3.2A4.443,4.443,0,0,0,40.007,57.1Zm3.31,9.735c-.009,0-.009.009,0,0-.361.388-.73.74-1.128,1.128a24.312,24.312,0,0,0-1.784,1.849,4.457,4.457,0,0,1-3.476,1.47c-.139,0-.287,0-.425-.009a20.052,20.052,0,0,1-7.211-2.163A41.067,41.067,0,0,1,10.571,53.329,37.532,37.532,0,0,1,3.914,42.244a13.2,13.2,0,0,1-1.035-5.787,4.244,4.244,0,0,1,1.276-2.746l3.153-3.152A2.1,2.1,0,0,1,8.712,29.9a1.978,1.978,0,0,1,1.35.647l.028.028c.564.527,1.1,1.072,1.664,1.655.287.3.582.592.878.9l2.524,2.524a1.764,1.764,0,0,1,0,2.866c-.268.268-.527.536-.8.8-.777.8-1.516,1.535-2.321,2.256-.018.018-.037.028-.046.046a1.886,1.886,0,0,0-.481,2.1l.028.083a20.263,20.263,0,0,0,2.986,4.872l.009.009a33.932,33.932,0,0,0,8.21,7.47,12.623,12.623,0,0,0,1.137.619c.333.166.647.324.915.49.037.018.074.046.111.065a2,2,0,0,0,.915.231,1.977,1.977,0,0,0,1.405-.638l3.162-3.162a2.092,2.092,0,0,1,1.4-.693,1.883,1.883,0,0,1,1.331.675l.018.018,5.094,5.094A1.828,1.828,0,0,1,38.241,61.741Z" transform="translate(-0.344 -27.406)" fill="#8498db"/>
    </g>
  </g>
</svg>
